<svg width="147" height="65" viewBox="0 0 147 65" fill="none" xmlns="http://www.w3.org/2000/svg">
<path fill-rule="evenodd" clip-rule="evenodd" d="M21.5596 16.4078C13.3583 25.4302 6.3969 33.0975 6.08951 33.4462L5.53087 34.0801H7.1298H8.72873L14.4494 28.0123C17.5956 24.675 20.1942 21.9445 20.2237 21.9445C20.3204 21.9445 20.0742 22.3279 16.2034 28.2059L12.3775 34.0155L22.2766 34.0486C31.6206 34.0798 32.172 34.0943 32.1106 34.3068C32.0747 34.4306 29.3164 40.9516 25.9812 48.7977C22.6458 56.6439 19.732 63.4992 19.5061 64.0318L19.0951 65.0001L19.5995 64.4837C20.4989 63.5628 49.962 31.1184 49.962 31.0489C49.962 31.012 49.3374 30.9824 48.5742 30.9834L47.1863 30.9852L41.8054 36.6962C36.5389 42.2856 35.4779 43.3796 35.7032 42.9881C35.7644 42.8816 37.5454 40.1631 39.6607 36.9472C41.7762 33.7311 43.5069 31.0736 43.5069 31.0415C43.5069 31.0094 38.9834 30.9683 33.4548 30.9501L23.4026 30.9171L29.5161 16.5222C36.4601 0.171396 36.5342 -0.00404791 36.4977 0.000212459C36.483 0.00201989 29.7608 7.38537 21.5596 16.4078ZM25.6605 4.78771C14.5648 5.64121 4.96451 13.1388 1.43383 23.7084C-2.53581 35.592 1.93434 48.6076 12.403 55.6466C14.0751 56.771 17.6822 58.6095 18.2159 58.6095C18.3609 58.6095 18.9998 57.2009 18.9162 57.0656C18.8835 57.0128 18.579 56.8651 18.2394 56.7374C17.2612 56.3698 14.8657 55.146 13.8822 54.5113C10.6427 52.4206 7.64143 49.3907 5.68411 46.2348C3.76462 43.1401 2.51052 39.6385 1.99256 35.9284C1.72958 34.0442 1.7962 29.845 2.11625 28.1426C2.61574 25.4841 3.20663 23.6666 4.3355 21.3159C6.51217 16.7834 9.93274 12.9646 14.1697 10.3368C17.1652 8.47886 20.9668 7.11644 24.2707 6.71674C24.9453 6.63515 25.7408 6.5391 26.0386 6.50347C26.5137 6.44653 26.6774 6.3288 27.3752 5.54166L28.1704 4.64479L27.6084 4.66299C27.2993 4.67293 26.4227 4.7291 25.6605 4.78771ZM45.5726 7.96387C45.1482 8.11996 44.9271 8.43859 44.9281 8.8929C44.9289 9.30086 45.0795 9.51813 46.1724 10.6879L47.4156 12.0189L47.1073 12.2319C46.9378 12.349 46.4922 12.7334 46.1171 13.086L45.4353 13.7271L44.1806 12.4116C43.0898 11.268 42.8712 11.0964 42.5064 11.098C41.9405 11.1005 41.5704 11.4897 41.5704 12.082C41.5704 12.4795 41.6977 12.6823 42.4418 13.4706C42.9212 13.9782 43.5099 14.6073 43.7502 14.8687L44.187 15.3437L43.9761 15.871C43.6049 16.7989 43.6873 17.2959 44.3138 17.9089C45.5327 19.1011 47.5938 19.5588 49.2059 18.9951L49.9344 18.7403L50.5895 19.9229C56.226 30.0982 54.4239 42.7314 46.1662 50.9305C42.4768 54.5937 37.9688 57.0199 32.9669 58.0342C32.1047 58.209 30.8745 58.3894 30.233 58.435L29.0667 58.5177L28.2743 59.4027L27.4819 60.2878H28.6402C31.3204 60.2878 35.1428 59.513 37.9522 58.4C47.7464 54.5199 54.4832 45.5614 55.5053 35.0582C56.0351 29.6133 54.7991 23.798 52.0836 18.9598C51.4882 17.8989 51.3731 17.6033 51.4914 17.4378C51.8533 16.9307 52.2639 16.0131 52.4141 15.3765C52.7354 14.0126 52.2691 12.2162 51.3429 11.2508C50.9417 10.8325 50.9054 10.8218 50.0266 10.8635L49.1229 10.9062L47.8461 9.55067C46.3211 7.9316 46.0932 7.77254 45.5726 7.96387ZM29.0969 26.1749L28.4362 27.6895L32.2277 27.7237C34.3129 27.7426 37.7407 27.7426 39.8449 27.7237L43.671 27.6895L36.8433 26.1717C33.0881 25.3368 29.9577 24.6552 29.8866 24.657C29.8156 24.6589 29.4602 25.3419 29.0969 26.1749ZM18.4611 38.9935C22.3309 39.9105 25.5598 40.6615 25.6363 40.6625C25.7545 40.664 26.1526 39.845 27.063 37.7272L27.2435 37.3076L19.3342 37.3169L11.425 37.3262L18.4611 38.9935Z" fill="#9900FF"/>
<mask id="mask0_31_984" style="mask-type:alpha" maskUnits="userSpaceOnUse" x="0" y="0" width="56" height="65">
<path fill-rule="evenodd" clip-rule="evenodd" d="M21.5596 16.4077C13.3583 25.4301 6.3969 33.0973 6.08951 33.446L5.53087 34.0799H7.1298H8.72873L14.4494 28.0121C17.5956 24.6748 20.1942 21.9443 20.2237 21.9443C20.3204 21.9443 20.0742 22.3278 16.2034 28.2058L12.3775 34.0154L22.2766 34.0484C31.6206 34.0797 32.172 34.0941 32.1106 34.3066C32.0747 34.4304 29.3164 40.9514 25.9812 48.7976C22.6458 56.6438 19.732 63.4991 19.5061 64.0316L19.0951 64.9999L19.5995 64.4835C20.4989 63.5626 49.962 31.1182 49.962 31.0487C49.962 31.0118 49.3374 30.9823 48.5742 30.9833L47.1863 30.9851L41.8054 36.6961C36.5389 42.2854 35.4779 43.3794 35.7032 42.988C35.7644 42.8815 37.5454 40.163 39.6607 36.947C41.7762 33.731 43.5069 31.0734 43.5069 31.0414C43.5069 31.0092 38.9834 30.9682 33.4548 30.95L23.4026 30.9169L29.5161 16.522C36.4601 0.171243 36.5342 -0.0042005 36.4977 5.98712e-05C36.483 0.0018673 29.7608 7.38522 21.5596 16.4077ZM25.6605 4.78756C14.5648 5.64105 4.96451 13.1386 1.43383 23.7082C-2.53581 35.5918 1.93434 48.6074 12.403 55.6465C14.0751 56.7708 17.6822 58.6094 18.2159 58.6094C18.3609 58.6094 18.9998 57.2007 18.9162 57.0654C18.8835 57.0126 18.579 56.8649 18.2394 56.7372C17.2612 56.3697 14.8657 55.1458 13.8822 54.5111C10.6427 52.4204 7.64143 49.3905 5.68411 46.2346C3.76462 43.1399 2.51052 39.6383 1.99256 35.9283C1.72958 34.044 1.7962 29.8449 2.11625 28.1424C2.61574 25.4839 3.20663 23.6664 4.3355 21.3157C6.51217 16.7832 9.93274 12.9645 14.1697 10.3366C17.1652 8.47871 20.9668 7.11629 24.2707 6.71659C24.9453 6.635 25.7408 6.53895 26.0386 6.50332C26.5137 6.44638 26.6774 6.32865 27.3752 5.54151L28.1704 4.64463L27.6084 4.66284C27.2993 4.67278 26.4227 4.72895 25.6605 4.78756ZM45.5726 7.96372C45.1482 8.11981 44.9271 8.43844 44.9281 8.89275C44.9289 9.30071 45.0795 9.51798 46.1724 10.6878L47.4156 12.0187L47.1073 12.2317C46.9378 12.3488 46.4922 12.7333 46.1171 13.0859L45.4353 13.727L44.1806 12.4114C43.0898 11.2678 42.8712 11.0963 42.5064 11.0978C41.9405 11.1004 41.5704 11.4895 41.5704 12.0818C41.5704 12.4793 41.6977 12.6822 42.4418 13.4705C42.9212 13.9781 43.5099 14.6072 43.7502 14.8685L44.187 15.3436L43.9761 15.8709C43.6049 16.7987 43.6873 17.2957 44.3138 17.9087C45.5327 19.101 47.5938 19.5587 49.2059 18.995L49.9344 18.7401L50.5895 19.9227C56.226 30.098 54.4239 42.7312 46.1662 50.9304C42.4768 54.5935 37.9688 57.0197 32.9669 58.0341C32.1047 58.2089 30.8745 58.3892 30.233 58.4348L29.0667 58.5176L28.2743 59.4026L27.4819 60.2877H28.6402C31.3204 60.2877 35.1428 59.5128 37.9522 58.3998C47.7464 54.5198 54.4832 45.5613 55.5053 35.058C56.0351 29.6131 54.7991 23.7978 52.0836 18.9596C51.4882 17.8988 51.3731 17.6031 51.4914 17.4376C51.8533 16.9305 52.2639 16.013 52.4141 15.3764C52.7354 14.0124 52.2691 12.2161 51.3429 11.2507C50.9417 10.8324 50.9054 10.8217 50.0266 10.8634L49.1229 10.9061L47.8461 9.55052C46.3211 7.93145 46.0932 7.77239 45.5726 7.96372ZM29.0969 26.1747L28.4362 27.6894L32.2277 27.7236C34.3129 27.7424 37.7407 27.7424 39.8449 27.7236L43.671 27.6894L36.8433 26.1715C33.0881 25.3366 29.9577 24.6551 29.8866 24.6569C29.8156 24.6587 29.4602 25.3418 29.0969 26.1747ZM18.4611 38.9933C22.3309 39.9103 25.5598 40.6613 25.6363 40.6623C25.7545 40.6639 26.1526 39.8449 27.063 37.7271L27.2435 37.3075L19.3342 37.3168L11.425 37.3261L18.4611 38.9933Z" fill="#BB22FF"/>
</mask>
<g mask="url(#mask0_31_984)">
<path fill-rule="evenodd" clip-rule="evenodd" d="M27.228 24.5294H50.4793V41.0545H41.4322L32.7071 55.7435L29.4467 53.8069L20.6208 68.6658L16.0088 65.9264L24.8348 51.0675L23.7686 50.4342L29.34 41.0545H4.90625V24.5294H12.2763L39.5478 -6.1969L47.9112 1.22612L27.228 24.5294Z" fill="#FFAE00"/>
</g>
<path d="M82.138 42V22.56H85.306V34.2L90.442 22.56H93.034V42H89.818V30.168L84.634 42H82.138ZM101.196 42.168C99.8199 42.168 98.7319 41.936 97.9319 41.472C97.1319 40.992 96.5639 40.336 96.2279 39.504C95.9079 38.656 95.7479 37.68 95.7479 36.576V35.544H99.5879V36.72C99.5879 37.168 99.6119 37.592 99.6599 37.992C99.7079 38.392 99.8439 38.72 100.068 38.976C100.308 39.216 100.684 39.336 101.196 39.336C101.708 39.336 102.084 39.208 102.324 38.952C102.564 38.696 102.716 38.36 102.78 37.944C102.844 37.512 102.876 37.048 102.876 36.552V33.216H99.6119V31.152H102.876V27.744C102.876 27.184 102.828 26.704 102.732 26.304C102.636 25.904 102.468 25.6 102.228 25.392C101.988 25.168 101.644 25.056 101.196 25.056C100.684 25.056 100.316 25.184 100.092 25.44C99.8679 25.68 99.7239 26.008 99.6599 26.424C99.6119 26.824 99.5879 27.264 99.5879 27.744V28.992H95.7479V28.032C95.7479 26.912 95.9079 25.912 96.2279 25.032C96.5479 24.152 97.0999 23.464 97.8839 22.968C98.6839 22.456 99.7879 22.2 101.196 22.2C102.652 22.2 103.796 22.472 104.628 23.016C105.46 23.56 106.044 24.32 106.38 25.296C106.716 26.256 106.884 27.392 106.884 28.704V35.64C106.884 36.984 106.716 38.144 106.38 39.12C106.044 40.096 105.46 40.848 104.628 41.376C103.796 41.904 102.652 42.168 101.196 42.168ZM109.319 42V28.128H112.199V35.952L115.943 28.128H118.775V42H115.823V34.224L112.175 42H109.319ZM120.505 42L124.273 22.56H128.665L132.409 42H128.737L128.041 37.728H124.969L124.225 42H120.505ZM125.329 35.304H127.657L126.481 27.456L125.329 35.304ZM139.779 42.264C138.339 42.264 137.195 41.992 136.347 41.448C135.515 40.904 134.931 40.152 134.595 39.192C134.259 38.216 134.091 37.088 134.091 35.808V28.824C134.091 27.48 134.259 26.328 134.595 25.368C134.931 24.392 135.515 23.64 136.347 23.112C137.195 22.584 138.339 22.32 139.779 22.32C141.171 22.32 142.259 22.552 143.043 23.016C143.843 23.48 144.403 24.136 144.723 24.984C145.059 25.832 145.227 26.816 145.227 27.936V29.568H141.387V27.744C141.387 27.296 141.363 26.88 141.315 26.496C141.267 26.096 141.131 25.776 140.907 25.536C140.699 25.28 140.331 25.152 139.803 25.152C139.275 25.152 138.891 25.28 138.651 25.536C138.411 25.792 138.259 26.128 138.195 26.544C138.131 26.944 138.099 27.392 138.099 27.888V36.72C138.099 37.264 138.139 37.744 138.219 38.16C138.315 38.56 138.483 38.872 138.723 39.096C138.979 39.304 139.339 39.408 139.803 39.408C140.315 39.408 140.675 39.288 140.883 39.048C141.107 38.792 141.243 38.456 141.291 38.04C141.355 37.624 141.387 37.184 141.387 36.72V34.824H145.227V36.432C145.227 37.568 145.067 38.576 144.747 39.456C144.427 40.32 143.875 41.008 143.091 41.52C142.307 42.016 141.203 42.264 139.779 42.264Z" fill="white"/>
</svg>
